<?xml version="1.0" standalone="no"?><!DOCTYPE svg PUBLIC "-//W3C//DTD SVG 1.1//EN" "http://www.w3.org/Graphics/SVG/1.1/DTD/svg11.dtd"><svg t="1727889673742" class="icon" viewBox="0 0 1024 1024" version="1.1" xmlns="http://www.w3.org/2000/svg" p-id="14773" xmlns:xlink="http://www.w3.org/1999/xlink" width="200" height="200"><path d="M512 0c282.7776 0 512 229.2224 512 512s-229.2224 512-512 512S0 794.7776 0 512 229.2224 0 512 0zM277.1456 446.0032a65.9968 65.9968 0 1 0 0 131.9936 65.9968 65.9968 0 0 0 0-131.9936z m235.52 0a65.9968 65.9968 0 1 0 0 131.9936 65.9968 65.9968 0 0 0 0-131.9936z m234.1376 0a65.9968 65.9968 0 1 0 0 131.9936 65.9968 65.9968 0 0 0 0-131.9936z" fill="#fb0808" p-id="14774"></path></svg>